# xmcd
#
# Track frame offsets: 
#        150
#        30345
#        53296
#        76316
#        99331
#        120416
#        137306
#        158210
#        182701
#        206318
#        221268
#        239657
#        258437
#        282812
#
# Disc length: 3999 seconds
#
# Revision: 3
# Processed by: cddbd v1.5.2PL0 Copyright (c) Steve Scherf et al.
# Submitted via: ExactAudioCopyFreeDBPlugin 1.0
#
DISCID=a90f9d0e
DTITLE=Rossano Sportiello Trio - Chopin in Jazz
DYEAR=2010
DGENRE=Jazz
TTITLE0=Nocturne in E-flat Major, Op.9-2, Film "Love Story"
TTITLE1=Impromptu No.4 in C-sharp Minor, Op.66 "Fnatasis_impromptu"
TTITLE2=Etude in E Major, Op.10-3
TTITLE3=Ballade No.1 in G Minor, Op.23
TTITLE4=Mazurka No.13 in A Minor, Op.17-4
TTITLE5=Waltz No.6 in D-flat Major, Op.64-1 "Minute"
TTITLE6=Etude in C Minor, Op.10-12 "Revolutionary"
TTITLE7=Prelude in G Major, Op.28-3
TTITLE8=Nocturne in C-sharp Minor, Op.posth, Film "The Pianist"
TTITLE9=Prelude in A Major, Op.28-7
TTITLE10=Prelude in D-flat Major, Op.28-15 "Raindrop"
TTITLE11=Prelude in C Minor, Op.28-20
TTITLE12=Ballade No.2 in F, Op.38
TTITLE13=Prelude in E Minor, Op.28-4
EXTD=YEAR: 2010
EXTT0=
EXTT1=
EXTT2=
EXTT3=
EXTT4=
EXTT5=
EXTT6=
EXTT7=
EXTT8=
EXTT9=
EXTT10=
EXTT11=
EXTT12=
EXTT13=
PLAYORDER=
